<?xml version="1.0" encoding="UTF-8" standalone="no"?>
<svg
   xmlns:dc="http://purl.org/dc/elements/1.1/"
   xmlns:cc="http://creativecommons.org/ns#"
   xmlns:rdf="http://www.w3.org/1999/02/22-rdf-syntax-ns#"
   xmlns:svg="http://www.w3.org/2000/svg"
   xmlns="http://www.w3.org/2000/svg"
   xmlns:sodipodi="http://sodipodi.sourceforge.net/DTD/sodipodi-0.dtd"
   xmlns:inkscape="http://www.inkscape.org/namespaces/inkscape"
   sodipodi:docname="heart-2.svg"
   inkscape:version="1.0beta2 (a1ff676, 2020-03-31)"
   id="svg8"
   version="1.1"
   viewBox="0 0 12.170833 10.583334"
   height="40"
   width="46">
  <defs
     id="defs2" />
  <sodipodi:namedview
     inkscape:window-maximized="1"
     inkscape:window-y="-8"
     inkscape:window-x="-8"
     inkscape:window-height="715"
     inkscape:window-width="1366"
     units="px"
     showgrid="false"
     inkscape:document-rotation="0"
     inkscape:current-layer="layer1"
     inkscape:document-units="px"
     inkscape:cy="20"
     inkscape:cx="23"
     inkscape:zoom="12.075"
     inkscape:pageshadow="2"
     inkscape:pageopacity="0.0"
     borderopacity="1.0"
     bordercolor="#666666"
     pagecolor="#ffffff"
     id="base" />
  <metadata
     id="metadata5">
    <rdf:RDF>
      <cc:Work
         rdf:about="">
        <dc:format>image/svg+xml</dc:format>
        <dc:type
           rdf:resource="http://purl.org/dc/dcmitype/StillImage" />
        <dc:title></dc:title>
      </cc:Work>
    </rdf:RDF>
  </metadata>
  <g
     id="layer1"
     inkscape:groupmode="layer"
     inkscape:label="Camada 1">
    <g
       transform="matrix(0.0687103,0,0,0.0687103,-19.677674,-3.5903662)"
       style="opacity:1;fill:#f51c1c;fill-opacity:1"
       id="g35">
      <path
         sodipodi:nodetypes="csccccssccc"
         inkscape:connector-curvature="0"
         id="path37"
         d="m 337.41753,52.253678 c -29.60581,0 -49.38888,24.308505 -49.38888,51.364442 0,25.38483 14.41555,47.32161 32.04068,64.63946 17.62513,17.31363 38.66092,30.14875 53.09306,37.59553 1.12448,0.57189 2.45565,0.57189 3.57999,0 14.43354,-7.4482 35.46827,-20.28331 53.09304,-37.59553 17.62514,-17.31503 32.04069,-39.25357 32.04069,-64.63946 0,-27.056287 -19.78307,-51.364442 -49.38889,-51.364442 -17.45297,0 -29.0463,8.899525 -37.53554,20.928185 -8.48854,-12.02901 -20.08364,-20.928185 -37.53556,-20.928185 z"
         style="color:#000000;font-style:normal;font-variant:normal;font-weight:normal;font-stretch:normal;font-size:medium;line-height:normal;font-family:sans-serif;font-variant-ligatures:normal;font-variant-position:normal;font-variant-caps:normal;font-variant-numeric:normal;font-variant-alternates:normal;font-variant-east-asian:normal;font-feature-settings:normal;font-variation-settings:normal;text-indent:0;text-align:start;text-decoration:none;text-decoration-line:none;text-decoration-style:solid;text-decoration-color:#000000;letter-spacing:normal;word-spacing:normal;text-transform:none;writing-mode:lr-tb;direction:ltr;text-orientation:mixed;dominant-baseline:auto;baseline-shift:baseline;text-anchor:start;white-space:normal;shape-padding:0;shape-margin:0;inline-size:0;clip-rule:nonzero;display:inline;overflow:visible;visibility:visible;isolation:auto;mix-blend-mode:normal;color-interpolation:sRGB;color-interpolation-filters:linearRGB;solid-color:#000000;solid-opacity:1;vector-effect:none;fill:#f51c1c;fill-opacity:1;fill-rule:nonzero;stroke:none;stroke-width:0.352777;stroke-linecap:butt;stroke-linejoin:miter;stroke-miterlimit:4;stroke-dasharray:none;stroke-dashoffset:0;stroke-opacity:1;color-rendering:auto;image-rendering:auto;shape-rendering:auto;text-rendering:auto;enable-background:accumulate;stop-color:#000000;stop-opacity:1" />
    </g>
    <path
       style="fill:#f51c1c;fill-opacity:1;stroke-width:0.0242394"
       inkscape:connector-curvature="0"
       id="path67"
       d="M 3.5063865,2.0434335e-6 C 1.4721625,2.0434335e-6 0.11286151,1.6702471 0.11286151,3.5292691 c 0,1.744199 0.99049699,3.251481 2.20152499,4.441395 1.211028,1.189625 2.656402,2.0715299 3.648039,2.5831999 0.07726,0.03929 0.168728,0.03929 0.245982,0 0.991734,-0.511768 2.437036,-1.3936719 3.648039,-2.5831999 1.2110285,-1.18972 2.2015255,-2.697123 2.2015255,-4.441395 C 12.057972,1.6702221 10.698671,2.0434335e-6 8.6644465,2.0434335e-6 7.4652485,2.0434335e-6 6.6686665,0.61149105 6.0853685,1.4379841 5.5021185,0.61146705 4.7054155,2.0434335e-6 3.5062895,2.0434335e-6 Z m 0,0.5429150065665 c 1.16284,0 1.800071,0.58014805 2.345725,1.49320005 0.04895,0.08228 0.137579,0.132655 0.233305,0.132655 0.09573,0 0.184354,-0.05037 0.233305,-0.132655 0.545679,-0.912955 1.18291,-1.49320005 2.345725,-1.49320005 1.7412665,0 2.8505615,1.38552805 2.8505615,2.98630305 0,1.537121 -0.88748,2.918673 -2.0403805,4.050899 -1.110847,1.091163 -2.438248,1.921171 -3.389162,2.4221519 C 5.1344545,9.5012901 3.8070525,8.6713791 2.6963035,7.5801191 1.5434265,6.4476751 0.65592251,5.0662451 0.65592251,3.5292201 c 0,-1.600751 1.10924599,-2.98630305 2.85056099,-2.98630305 z" />
  </g>
</svg>
